# xmcd
#
# Track frame offsets: 
#        150
#        13273
#        25111
#        38400
#        52339
#        62789
#        75476
#        87631
#        99249
#        112324
#        125024
#        137736
#        151264
#        162933
#        175977
#        186691
#        196643
#        209222
#        223387
#        232785
#        242253
#        255015
#        264057
#        274024
#
# Disc length: 3790 seconds
#
# Revision: 0
# Processed by: cddbd v1.5.2PL0 Copyright (c) Steve Scherf et al.
# Submitted via: ExactAudioCopy v0.95b4
#
DISCID=500ecc18
DTITLE=The Delmore Brothers - Delmore Brothers Vol. 2 - CD A
DYEAR=2007
DGENRE=Country
TTITLE0=Ramblin' Minded Blues
TTITLE1=I Ain't Gonna Stay Here Long
TTITLE2=I'm Going Back to Alabama
TTITLE3=I'm Leavin' You
TTITLE4=By The Banks of the Rio Grande
TTITLE5=Don't Let Me Be in the Way
TTITLE6=Hey, Hey I'm Memphis Bound
TTITLE7=I Guess I've Got to be Going
TTITLE8=I Know I'll Be Happy In Heaven
TTITLE9=I Believe It For My Mother Told Me So
TTITLE10=Carry Me Back to Alabama
TTITLE11=I Don't Know Why I Love Her
TTITLE12=Don't Forget Me Darling
TTITLE13=Memories of My Carolina Girl
TTITLE14=Wonderful There
TTITLE15=The Farmer's Girl
TTITLE16=Look Up, Look Down That Lonesome Road
TTITLE17=Ain't It Hard to Love
TTITLE18=Bury Me Under the Weeping Willow
TTITLE19=Brother Take Warning
TTITLE20=Alcatraz Island Blues
TTITLE21=There's a Lonesome Road
TTITLE22=Leavin' On That Train
TTITLE23=My Home's Across The Blue Ridge Mountains
EXTD=
EXTT0=
EXTT1=
EXTT2=
EXTT3=
EXTT4=
EXTT5=
EXTT6=
EXTT7=
EXTT8=
EXTT9=
EXTT10=
EXTT11=
EXTT12=
EXTT13=
EXTT14=
EXTT15=
EXTT16=
EXTT17=
EXTT18=
EXTT19=
EXTT20=
EXTT21=
EXTT22=
EXTT23=
PLAYORDER=
